<svg width="14" height="14" viewBox="0 0 14 14" fill="none" xmlns="http://www.w3.org/2000/svg">
<path d="M10.4587 8.37483C10.3338 8.58065 10.3723 8.88742 10.5395 9.05456L13.6925 12.2075C14.1025 12.6176 14.1025 13.2824 13.6925 13.6925C13.2824 14.1025 12.6176 14.1025 12.2075 13.6925L9.05456 10.5395C8.88497 10.3699 8.57929 10.3363 8.37061 10.461C8.37061 10.461 8.29335 10.5184 8.05078 10.6367C7.31055 10.9975 6.47892 11.2 5.6 11.2C2.50721 11.2 0 8.69279 0 5.6C0 2.50721 2.50721 0 5.6 0C8.69279 0 11.2 2.50721 11.2 5.6C11.2 6.48204 10.9961 7.31645 10.6328 8.05866C10.5155 8.29839 10.4587 8.37483 10.4587 8.37483ZM5.6 9.1C7.533 9.1 9.1 7.533 9.1 5.6C9.1 3.667 7.533 2.1 5.6 2.1C3.667 2.1 2.1 3.667 2.1 5.6C2.1 7.533 3.667 9.1 5.6 9.1Z" fill="#9F9F9F"/>
</svg>
